<mxfile host="app.diagrams.net" modified="2023-07-18T06:29:12.438Z" agent="Mozilla/5.0 (Windows NT 10.0; Win64; x64; rv:109.0) Gecko/20100101 Firefox/115.0" etag="szbcpMBF8L5Nvul_zsLM" version="21.6.2" type="github">
  <diagram id="C5RBs43oDa-KdzZeNtuy" name="Page-1">
    <mxGraphModel dx="1434" dy="792" grid="1" gridSize="10" guides="1" tooltips="1" connect="1" arrows="1" fold="1" page="1" pageScale="1" pageWidth="827" pageHeight="1169" math="0" shadow="0">
      <root>
        <mxCell id="WIyWlLk6GJQsqaUBKTNV-0" />
        <mxCell id="WIyWlLk6GJQsqaUBKTNV-1" parent="WIyWlLk6GJQsqaUBKTNV-0" />
        <mxCell id="WIyWlLk6GJQsqaUBKTNV-2" value="" style="rounded=0;html=1;jettySize=auto;orthogonalLoop=1;fontSize=11;endArrow=block;endFill=0;endSize=8;strokeWidth=1;shadow=0;labelBackgroundColor=none;edgeStyle=orthogonalEdgeStyle;" parent="WIyWlLk6GJQsqaUBKTNV-1" source="WIyWlLk6GJQsqaUBKTNV-3" target="WIyWlLk6GJQsqaUBKTNV-6" edge="1">
          <mxGeometry relative="1" as="geometry" />
        </mxCell>
        <mxCell id="WIyWlLk6GJQsqaUBKTNV-3" value="Client" style="rounded=1;whiteSpace=wrap;html=1;fontSize=12;glass=0;strokeWidth=1;shadow=0;" parent="WIyWlLk6GJQsqaUBKTNV-1" vertex="1">
          <mxGeometry x="160" y="80" width="120" height="40" as="geometry" />
        </mxCell>
        <mxCell id="WIyWlLk6GJQsqaUBKTNV-4" value="Yes" style="rounded=0;html=1;jettySize=auto;orthogonalLoop=1;fontSize=11;endArrow=block;endFill=0;endSize=8;strokeWidth=1;shadow=0;labelBackgroundColor=none;edgeStyle=orthogonalEdgeStyle;entryX=0.417;entryY=-0.05;entryDx=0;entryDy=0;entryPerimeter=0;" parent="WIyWlLk6GJQsqaUBKTNV-1" source="WIyWlLk6GJQsqaUBKTNV-6" target="WIyWlLk6GJQsqaUBKTNV-12" edge="1">
          <mxGeometry x="-0.0125" y="-10" relative="1" as="geometry">
            <mxPoint x="-10" y="-10" as="offset" />
            <mxPoint x="220" y="290" as="targetPoint" />
          </mxGeometry>
        </mxCell>
        <mxCell id="WIyWlLk6GJQsqaUBKTNV-5" value="No" style="edgeStyle=orthogonalEdgeStyle;rounded=0;html=1;jettySize=auto;orthogonalLoop=1;fontSize=11;endArrow=block;endFill=0;endSize=8;strokeWidth=1;shadow=0;labelBackgroundColor=none;" parent="WIyWlLk6GJQsqaUBKTNV-1" source="WIyWlLk6GJQsqaUBKTNV-6" target="WIyWlLk6GJQsqaUBKTNV-7" edge="1">
          <mxGeometry y="10" relative="1" as="geometry">
            <mxPoint as="offset" />
          </mxGeometry>
        </mxCell>
        <mxCell id="WIyWlLk6GJQsqaUBKTNV-6" value="Authorized" style="rhombus;whiteSpace=wrap;html=1;shadow=0;fontFamily=Helvetica;fontSize=12;align=center;strokeWidth=1;spacing=6;spacingTop=-4;" parent="WIyWlLk6GJQsqaUBKTNV-1" vertex="1">
          <mxGeometry x="170" y="170" width="100" height="80" as="geometry" />
        </mxCell>
        <mxCell id="WIyWlLk6GJQsqaUBKTNV-7" value="Send Token" style="rounded=1;whiteSpace=wrap;html=1;fontSize=12;glass=0;strokeWidth=1;shadow=0;" parent="WIyWlLk6GJQsqaUBKTNV-1" vertex="1">
          <mxGeometry x="320" y="190" width="120" height="40" as="geometry" />
        </mxCell>
        <mxCell id="WIyWlLk6GJQsqaUBKTNV-12" value="API Gateway" style="rounded=1;whiteSpace=wrap;html=1;fontSize=12;glass=0;strokeWidth=1;shadow=0;" parent="WIyWlLk6GJQsqaUBKTNV-1" vertex="1">
          <mxGeometry x="170" y="320" width="120" height="40" as="geometry" />
        </mxCell>
        <mxCell id="jbzEe8h6JV50cFu6_6pV-1" value="" style="endArrow=classic;html=1;rounded=0;exitX=0.367;exitY=0.025;exitDx=0;exitDy=0;exitPerimeter=0;entryX=0.875;entryY=0.975;entryDx=0;entryDy=0;entryPerimeter=0;" edge="1" parent="WIyWlLk6GJQsqaUBKTNV-1" source="WIyWlLk6GJQsqaUBKTNV-7" target="WIyWlLk6GJQsqaUBKTNV-3">
          <mxGeometry width="50" height="50" relative="1" as="geometry">
            <mxPoint x="300" y="130" as="sourcePoint" />
            <mxPoint x="350" y="80" as="targetPoint" />
          </mxGeometry>
        </mxCell>
        <mxCell id="jbzEe8h6JV50cFu6_6pV-3" value="Log Microservice" style="whiteSpace=wrap;html=1;aspect=fixed;" vertex="1" parent="WIyWlLk6GJQsqaUBKTNV-1">
          <mxGeometry x="70" y="545" width="80" height="80" as="geometry" />
        </mxCell>
        <mxCell id="jbzEe8h6JV50cFu6_6pV-5" value="" style="endArrow=classic;startArrow=classic;html=1;rounded=0;entryX=0.175;entryY=1.025;entryDx=0;entryDy=0;entryPerimeter=0;exitX=0.613;exitY=0.025;exitDx=0;exitDy=0;exitPerimeter=0;" edge="1" parent="WIyWlLk6GJQsqaUBKTNV-1" source="jbzEe8h6JV50cFu6_6pV-3" target="WIyWlLk6GJQsqaUBKTNV-12">
          <mxGeometry width="50" height="50" relative="1" as="geometry">
            <mxPoint x="120" y="500" as="sourcePoint" />
            <mxPoint x="170" y="450" as="targetPoint" />
          </mxGeometry>
        </mxCell>
        <mxCell id="jbzEe8h6JV50cFu6_6pV-7" value="Log DB" style="shape=cylinder3;whiteSpace=wrap;html=1;boundedLbl=1;backgroundOutline=1;size=15;" vertex="1" parent="WIyWlLk6GJQsqaUBKTNV-1">
          <mxGeometry x="80" y="670" width="60" height="80" as="geometry" />
        </mxCell>
        <mxCell id="jbzEe8h6JV50cFu6_6pV-8" value="" style="endArrow=none;html=1;rounded=0;entryX=0.5;entryY=1;entryDx=0;entryDy=0;" edge="1" parent="WIyWlLk6GJQsqaUBKTNV-1" target="jbzEe8h6JV50cFu6_6pV-3">
          <mxGeometry width="50" height="50" relative="1" as="geometry">
            <mxPoint x="110" y="670" as="sourcePoint" />
            <mxPoint x="160" y="620" as="targetPoint" />
          </mxGeometry>
        </mxCell>
        <mxCell id="jbzEe8h6JV50cFu6_6pV-9" value="Encrypted con." style="text;html=1;align=center;verticalAlign=middle;resizable=0;points=[];autosize=1;strokeColor=none;fillColor=none;" vertex="1" parent="WIyWlLk6GJQsqaUBKTNV-1">
          <mxGeometry x="60" y="428" width="100" height="30" as="geometry" />
        </mxCell>
        <mxCell id="jbzEe8h6JV50cFu6_6pV-10" value="Authentication &amp;amp; Authorization " style="whiteSpace=wrap;html=1;aspect=fixed;" vertex="1" parent="WIyWlLk6GJQsqaUBKTNV-1">
          <mxGeometry x="210" y="544" width="80" height="80" as="geometry" />
        </mxCell>
        <mxCell id="jbzEe8h6JV50cFu6_6pV-11" value="" style="endArrow=classic;startArrow=classic;html=1;rounded=0;entryX=0.5;entryY=1;entryDx=0;entryDy=0;exitX=0.613;exitY=0.025;exitDx=0;exitDy=0;exitPerimeter=0;" edge="1" parent="WIyWlLk6GJQsqaUBKTNV-1" source="jbzEe8h6JV50cFu6_6pV-10" target="WIyWlLk6GJQsqaUBKTNV-12">
          <mxGeometry width="50" height="50" relative="1" as="geometry">
            <mxPoint x="260" y="499" as="sourcePoint" />
            <mxPoint x="331" y="360" as="targetPoint" />
          </mxGeometry>
        </mxCell>
        <mxCell id="jbzEe8h6JV50cFu6_6pV-12" value="DB" style="shape=cylinder3;whiteSpace=wrap;html=1;boundedLbl=1;backgroundOutline=1;size=15;" vertex="1" parent="WIyWlLk6GJQsqaUBKTNV-1">
          <mxGeometry x="220" y="669" width="60" height="80" as="geometry" />
        </mxCell>
        <mxCell id="jbzEe8h6JV50cFu6_6pV-13" value="" style="endArrow=none;html=1;rounded=0;entryX=0.5;entryY=1;entryDx=0;entryDy=0;" edge="1" parent="WIyWlLk6GJQsqaUBKTNV-1" target="jbzEe8h6JV50cFu6_6pV-10">
          <mxGeometry width="50" height="50" relative="1" as="geometry">
            <mxPoint x="250" y="669" as="sourcePoint" />
            <mxPoint x="300" y="619" as="targetPoint" />
          </mxGeometry>
        </mxCell>
        <mxCell id="jbzEe8h6JV50cFu6_6pV-15" value="Registration" style="whiteSpace=wrap;html=1;aspect=fixed;" vertex="1" parent="WIyWlLk6GJQsqaUBKTNV-1">
          <mxGeometry x="334" y="544" width="80" height="80" as="geometry" />
        </mxCell>
        <mxCell id="jbzEe8h6JV50cFu6_6pV-16" value="" style="endArrow=classic;startArrow=classic;html=1;rounded=0;entryX=0.683;entryY=1.1;entryDx=0;entryDy=0;exitX=0.613;exitY=0.025;exitDx=0;exitDy=0;exitPerimeter=0;entryPerimeter=0;" edge="1" parent="WIyWlLk6GJQsqaUBKTNV-1" source="jbzEe8h6JV50cFu6_6pV-15" target="WIyWlLk6GJQsqaUBKTNV-12">
          <mxGeometry width="50" height="50" relative="1" as="geometry">
            <mxPoint x="384" y="499" as="sourcePoint" />
            <mxPoint x="354" y="360" as="targetPoint" />
          </mxGeometry>
        </mxCell>
        <mxCell id="jbzEe8h6JV50cFu6_6pV-17" value="DB" style="shape=cylinder3;whiteSpace=wrap;html=1;boundedLbl=1;backgroundOutline=1;size=15;" vertex="1" parent="WIyWlLk6GJQsqaUBKTNV-1">
          <mxGeometry x="344" y="669" width="60" height="80" as="geometry" />
        </mxCell>
        <mxCell id="jbzEe8h6JV50cFu6_6pV-18" value="" style="endArrow=none;html=1;rounded=0;entryX=0.5;entryY=1;entryDx=0;entryDy=0;" edge="1" parent="WIyWlLk6GJQsqaUBKTNV-1" target="jbzEe8h6JV50cFu6_6pV-15">
          <mxGeometry width="50" height="50" relative="1" as="geometry">
            <mxPoint x="374" y="669" as="sourcePoint" />
            <mxPoint x="424" y="619" as="targetPoint" />
          </mxGeometry>
        </mxCell>
        <mxCell id="jbzEe8h6JV50cFu6_6pV-19" value="Bidding" style="whiteSpace=wrap;html=1;aspect=fixed;" vertex="1" parent="WIyWlLk6GJQsqaUBKTNV-1">
          <mxGeometry x="460" y="544" width="80" height="80" as="geometry" />
        </mxCell>
        <mxCell id="jbzEe8h6JV50cFu6_6pV-20" value="" style="endArrow=classic;startArrow=classic;html=1;rounded=0;entryX=0.867;entryY=1.125;entryDx=0;entryDy=0;exitX=0.613;exitY=0.025;exitDx=0;exitDy=0;exitPerimeter=0;entryPerimeter=0;" edge="1" parent="WIyWlLk6GJQsqaUBKTNV-1" source="jbzEe8h6JV50cFu6_6pV-19" target="WIyWlLk6GJQsqaUBKTNV-12">
          <mxGeometry width="50" height="50" relative="1" as="geometry">
            <mxPoint x="510" y="499" as="sourcePoint" />
            <mxPoint x="480" y="360" as="targetPoint" />
          </mxGeometry>
        </mxCell>
        <mxCell id="jbzEe8h6JV50cFu6_6pV-21" value="DB" style="shape=cylinder3;whiteSpace=wrap;html=1;boundedLbl=1;backgroundOutline=1;size=15;" vertex="1" parent="WIyWlLk6GJQsqaUBKTNV-1">
          <mxGeometry x="470" y="669" width="60" height="80" as="geometry" />
        </mxCell>
        <mxCell id="jbzEe8h6JV50cFu6_6pV-22" value="" style="endArrow=none;html=1;rounded=0;entryX=0.5;entryY=1;entryDx=0;entryDy=0;" edge="1" parent="WIyWlLk6GJQsqaUBKTNV-1" target="jbzEe8h6JV50cFu6_6pV-19">
          <mxGeometry width="50" height="50" relative="1" as="geometry">
            <mxPoint x="500" y="669" as="sourcePoint" />
            <mxPoint x="550" y="619" as="targetPoint" />
          </mxGeometry>
        </mxCell>
        <mxCell id="jbzEe8h6JV50cFu6_6pV-23" value="Procurements" style="whiteSpace=wrap;html=1;aspect=fixed;" vertex="1" parent="WIyWlLk6GJQsqaUBKTNV-1">
          <mxGeometry x="580" y="545" width="80" height="80" as="geometry" />
        </mxCell>
        <mxCell id="jbzEe8h6JV50cFu6_6pV-24" value="" style="endArrow=classic;startArrow=classic;html=1;rounded=0;entryX=1;entryY=0.75;entryDx=0;entryDy=0;exitX=0.613;exitY=0.025;exitDx=0;exitDy=0;exitPerimeter=0;" edge="1" parent="WIyWlLk6GJQsqaUBKTNV-1" source="jbzEe8h6JV50cFu6_6pV-23" target="WIyWlLk6GJQsqaUBKTNV-12">
          <mxGeometry width="50" height="50" relative="1" as="geometry">
            <mxPoint x="630" y="500" as="sourcePoint" />
            <mxPoint x="600" y="361" as="targetPoint" />
          </mxGeometry>
        </mxCell>
        <mxCell id="jbzEe8h6JV50cFu6_6pV-25" value="DB" style="shape=cylinder3;whiteSpace=wrap;html=1;boundedLbl=1;backgroundOutline=1;size=15;" vertex="1" parent="WIyWlLk6GJQsqaUBKTNV-1">
          <mxGeometry x="590" y="670" width="60" height="80" as="geometry" />
        </mxCell>
        <mxCell id="jbzEe8h6JV50cFu6_6pV-26" value="" style="endArrow=none;html=1;rounded=0;entryX=0.5;entryY=1;entryDx=0;entryDy=0;" edge="1" parent="WIyWlLk6GJQsqaUBKTNV-1" target="jbzEe8h6JV50cFu6_6pV-23">
          <mxGeometry width="50" height="50" relative="1" as="geometry">
            <mxPoint x="620" y="670" as="sourcePoint" />
            <mxPoint x="670" y="620" as="targetPoint" />
          </mxGeometry>
        </mxCell>
      </root>
    </mxGraphModel>
  </diagram>
</mxfile>
